<svg id="visual" viewBox="0 0 900 600" width="900" height="600" xmlns="http://www.w3.org/2000/svg" xmlns:xlink="http://www.w3.org/1999/xlink" version="1.1"><path d="M640 600L636.7 585.7C633.3 571.3 626.7 542.7 611.7 514.2C596.7 485.7 573.3 457.3 558.5 428.8C543.7 400.3 537.3 371.7 539.8 343C542.3 314.3 553.7 285.7 573.8 257C594 228.3 623 199.7 621.7 171.2C620.3 142.7 588.7 114.3 574.5 85.8C560.3 57.3 563.7 28.7 565.3 14.3L567 0L900 0L900 14.3C900 28.7 900 57.3 900 85.8C900 114.3 900 142.7 900 171.2C900 199.7 900 228.3 900 257C900 285.7 900 314.3 900 343C900 371.7 900 400.3 900 428.8C900 457.3 900 485.7 900 514.2C900 542.7 900 571.3 900 585.7L900 600Z" fill="#f29829"></path><path d="M716 600L698.7 585.7C681.3 571.3 646.7 542.7 633 514.2C619.3 485.7 626.7 457.3 639.5 428.8C652.3 400.3 670.7 371.7 665.5 343C660.3 314.3 631.7 285.7 630.8 257C630 228.3 657 199.7 674.3 171.2C691.7 142.7 699.3 114.3 701.2 85.8C703 57.3 699 28.7 697 14.3L695 0L900 0L900 14.3C900 28.7 900 57.3 900 85.8C900 114.3 900 142.7 900 171.2C900 199.7 900 228.3 900 257C900 285.7 900 314.3 900 343C900 371.7 900 400.3 900 428.8C900 457.3 900 485.7 900 514.2C900 542.7 900 571.3 900 585.7L900 600Z" fill="#d18221"></path><path d="M704 600L698.7 585.7C693.3 571.3 682.7 542.7 679.3 514.2C676 485.7 680 457.3 693.7 428.8C707.3 400.3 730.7 371.7 727.8 343C725 314.3 696 285.7 688.5 257C681 228.3 695 199.7 705.8 171.2C716.7 142.7 724.3 114.3 718.5 85.8C712.7 57.3 693.3 28.7 683.7 14.3L674 0L900 0L900 14.3C900 28.7 900 57.3 900 85.8C900 114.3 900 142.7 900 171.2C900 199.7 900 228.3 900 257C900 285.7 900 314.3 900 343C900 371.7 900 400.3 900 428.8C900 457.3 900 485.7 900 514.2C900 542.7 900 571.3 900 585.7L900 600Z" fill="#b06c19"></path><path d="M757 600L761.8 585.7C766.7 571.3 776.3 542.7 784.7 514.2C793 485.7 800 457.3 804.3 428.8C808.7 400.3 810.3 371.7 807.5 343C804.7 314.3 797.3 285.7 796.3 257C795.3 228.3 800.7 199.7 800.8 171.2C801 142.7 796 114.3 782.8 85.8C769.7 57.3 748.3 28.7 737.7 14.3L727 0L900 0L900 14.3C900 28.7 900 57.3 900 85.8C900 114.3 900 142.7 900 171.2C900 199.7 900 228.3 900 257C900 285.7 900 314.3 900 343C900 371.7 900 400.3 900 428.8C900 457.3 900 485.7 900 514.2C900 542.7 900 571.3 900 585.7L900 600Z" fill="#915811"></path><path d="M799 600L798.2 585.7C797.3 571.3 795.7 542.7 804.8 514.2C814 485.7 834 457.3 839.7 428.8C845.3 400.3 836.7 371.7 831 343C825.3 314.3 822.7 285.7 820 257C817.3 228.3 814.7 199.7 817.2 171.2C819.7 142.7 827.3 114.3 827.5 85.8C827.7 57.3 820.3 28.7 816.7 14.3L813 0L900 0L900 14.3C900 28.7 900 57.3 900 85.8C900 114.3 900 142.7 900 171.2C900 199.7 900 228.3 900 257C900 285.7 900 314.3 900 343C900 371.7 900 400.3 900 428.8C900 457.3 900 485.7 900 514.2C900 542.7 900 571.3 900 585.7L900 600Z" fill="#73440a"></path></svg>