<?xml version="1.0" encoding="utf-8"?>
<!-- Generator: Adobe Illustrator 16.0.0, SVG Export Plug-In . SVG Version: 6.00 Build 0)  -->
<!DOCTYPE svg PUBLIC "-//W3C//DTD SVG 1.1//EN" "http://www.w3.org/Graphics/SVG/1.1/DTD/svg11.dtd">
<svg version="1.1" id="Layer_1" xmlns="http://www.w3.org/2000/svg" xmlns:xlink="http://www.w3.org/1999/xlink" x="0px" y="0px"
	 width="20px" height="20px" viewBox="0 0 20 20" enable-background="new 0 0 20 20" xml:space="preserve">
<g>
	<path fill-rule="evenodd" clip-rule="evenodd" d="M19.771,6.908c0,0.089,0,0.178,0,0.268c-0.182,0.16-0.344,0.351-0.547,0.477
		c-2.759,1.701-5.521,3.391-8.282,5.086c-0.63,0.387-1.253,0.387-1.884,0c-2.76-1.695-5.524-3.386-8.281-5.086
		C0.573,7.527,0.411,7.336,0.229,7.176c0-0.089,0-0.179,0-0.268C0.353,6.682,0.552,6.55,0.779,6.437
		c2.802-1.396,5.602-2.795,8.4-4.2c0.553-0.277,1.088-0.277,1.642,0c2.798,1.404,5.599,2.804,8.402,4.2
		C19.449,6.55,19.648,6.682,19.771,6.908z"/>
	<path fill-rule="evenodd" clip-rule="evenodd" d="M17.443,12.339c0,0.54-0.013,1.082,0.004,1.622
		c0.021,0.652-0.235,1.185-0.663,1.652c-0.599,0.654-1.344,1.103-2.151,1.444c-1.872,0.796-3.826,1.042-5.842,0.853
		c-1.386-0.129-2.716-0.467-3.957-1.105c-0.725-0.375-1.385-0.83-1.869-1.505c-0.267-0.372-0.411-0.782-0.41-1.245
		c0.005-1.087,0-2.175,0.004-3.263c0.001-0.125,0.01-0.255,0.044-0.375c0.048-0.167,0.181-0.227,0.346-0.169
		c0.089,0.031,0.171,0.081,0.254,0.13c1.793,1.099,3.587,2.198,5.379,3.297c0.947,0.58,1.893,0.58,2.84,0
		c1.843-1.13,3.685-2.26,5.524-3.389c0.049-0.031,0.098-0.062,0.147-0.089c0.198-0.106,0.313-0.047,0.343,0.178
		c0.01,0.076,0.008,0.153,0.008,0.229C17.443,11.182,17.443,11.76,17.443,12.339z"/>
	<path fill-rule="evenodd" clip-rule="evenodd" d="M19.084,12.436c0,0.922,0.005,1.844-0.003,2.767
		c-0.002,0.18,0.055,0.289,0.196,0.395c0.347,0.257,0.465,0.619,0.369,1.029c-0.098,0.413-0.376,0.674-0.797,0.752
		c-0.414,0.077-0.754-0.072-1.001-0.405c-0.314-0.423-0.227-1.047,0.197-1.364c0.154-0.114,0.209-0.236,0.208-0.426
		c-0.007-1.68,0-3.358-0.009-5.038c-0.001-0.271,0.069-0.468,0.318-0.591c0.108-0.054,0.209-0.122,0.313-0.184
		c0.13-0.079,0.187-0.019,0.202,0.109c0.007,0.063,0.005,0.126,0.005,0.19C19.084,10.591,19.084,11.514,19.084,12.436z"/>
</g>
</svg>
